<?xml version="1.0" encoding="utf-8"?>
<svg width="175px" height="253px" viewbox="0 0 175 253" version="1.1" xmlns:xlink="http://www.w3.org/1999/xlink" xmlns="http://www.w3.org/2000/svg">
  <g id="Group" transform="translate(0.5 0.5)">
    <path d="M174 38.7909C165.859 174.405 107.051 247.209 100.254 246.176C93.2408 250.254 89.4788 249.688 78.164 246.176C49.5672 233.288 10.3082 131.995 0 38.7909C7.84072 -9.59841 161.802 -16.1583 174 38.7909Z" transform="translate(0 0.0030670166)" id="light" fill="#D2FF6C" fill-rule="evenodd" stroke="none" />
    <path d="M97.79 0C83.3213 29.6375 74.6432 50.7205 60.0679 57.3524C59.8998 57.3922 59.7335 57.4316 59.569 57.4706C52.5129 59.1446 48.718 60.0449 39.4219 57.3523C25.8638 52.0256 8.14366 19.0577 0 0C23.0463 5.18407 67.4952 7.43987 97.79 0ZM19.286 29.9063C17.6257 31.266 23.5867 38.2424 25.1483 37.3828C28.3722 35.6081 21.007 28.4969 19.286 29.9063ZM79.3105 29.9946C80.9709 31.3543 75.0098 38.3307 73.4483 37.4711C70.2244 35.6964 77.5896 28.5852 79.3105 29.9946ZM44.7751 37.0429C44.0044 42.2311 33.4143 39.3604 35.0039 34.3243C36.1183 30.7941 45.3078 33.4566 44.7751 37.0429ZM55.5018 37.2C56.2724 42.3882 66.8626 39.5175 65.2729 34.4814C64.1586 30.9512 54.969 33.6137 55.5018 37.2Z" transform="translate(39.591797 192.14377)" id="base" fill="#1D1D1D" fill-rule="evenodd" stroke="#535353" stroke-width="1" />
    <path d="M137.552 192.059C160.681 140.109 169.937 96.2388 174 38.7905C161.802 -16.1581 7.84072 -9.59832 0 38.7905C8.09494 101.31 13.602 123.189 39.5068 192.059C68.4393 198.549 112.432 198.475 137.552 192.059ZM134.069 192.322C155.526 143.241 162.245 95.5286 166.014 41.2532C139.792 0.667596 23.2721 8.08883 5.8623 45.7561C13.3723 104.823 19.0761 127.257 43.1089 192.322C69.9505 198.454 110.764 198.385 134.069 192.322Z" id="glass-outline" fill="#000000" fill-opacity="0.78039217" fill-rule="evenodd" stroke="#535353" stroke-width="1" />
  </g>
</svg>